<?xml version="1.0" encoding="utf-8"?>
<!-- Generator: Adobe Illustrator 23.0.4, SVG Export Plug-In . SVG Version: 6.00 Build 0)  -->
<svg version="1.1" xmlns="http://www.w3.org/2000/svg" xmlns:xlink="http://www.w3.org/1999/xlink" x="0px" y="0px"
	 viewBox="0 0 1920 1080" style="enable-background:new 0 0 1920 1080;" xml:space="preserve">
<style type="text/css">
	.st0{fill:url(#SVGID_1_);}
	.st1{fill:none;stroke:#000000;stroke-width:13;stroke-miterlimit:10;}
	.st2{fill:url(#SVGID_2_);}
	.st3{fill:url(#SVGID_3_);}
	.st4{fill:url(#SVGID_4_);}
	.st5{fill:url(#SVGID_5_);}
	.st6{fill:#00A1EC;}
	.st7{fill:#00B4FF;}
	.st8{fill:#4AB349;}
	.st9{fill:#72C059;}
	.st10{fill:#B6FFFF;}
	.st11{fill:#A4E8E5;}
	.st12{opacity:0.55;fill:#FFFFFF;}
	.st13{opacity:0.75;fill:url(#SVGID_6_);}
	.st14{fill:#FFFFFF;}
	.st15{fill:#F04E5C;}
</style>
<g id="Layer_1">
</g>
<g id="Layer_2">
	<radialGradient id="SVGID_1_" cx="960" cy="540" r="522.5" gradientUnits="userSpaceOnUse">
		<stop  offset="0" style="stop-color:#9E76B4;stop-opacity:0.9"/>
		<stop  offset="0.4415" style="stop-color:#5B5D8C;stop-opacity:0.9442"/>
		<stop  offset="1" style="stop-color:#003C56"/>
		<stop  offset="1" style="stop-color:#003951"/>
		<stop  offset="1" style="stop-color:#002F44"/>
		<stop  offset="1" style="stop-color:#001F2D"/>
		<stop  offset="1" style="stop-color:#00090E"/>
		<stop  offset="1" style="stop-color:#000000"/>
	</radialGradient>
	<circle class="st0" cx="960" cy="540" r="522.5"/>
	<path class="st1" d="M960,1042.5c-67.8,0-133.7-13.3-195.6-39.5c-59.8-25.3-113.6-61.5-159.7-107.7
		c-46.2-46.2-82.4-99.9-107.7-159.7c-26.2-61.9-39.5-127.7-39.5-195.6s13.3-133.7,39.5-195.6c25.3-59.8,61.5-113.6,107.7-159.7
		c46.2-46.2,99.9-82.4,159.7-107.7C826.3,50.8,892.2,37.5,960,37.5s133.7,13.3,195.6,39.5c59.8,25.3,113.6,61.5,159.7,107.7
		c46.2,46.2,82.4,99.9,107.7,159.7c26.2,61.9,39.5,127.7,39.5,195.6s-13.3,133.7-39.5,195.6c-25.3,59.8-61.5,113.6-107.7,159.7
		s-99.9,82.4-159.7,107.7C1093.7,1029.2,1027.8,1042.5,960,1042.5z"/>
</g>
<g id="Layer_4">
	<linearGradient id="SVGID_2_" gradientUnits="userSpaceOnUse" x1="627.7437" y1="181.1042" x2="703.2563" y2="311.8958">
		<stop  offset="0" style="stop-color:#CDD5D5;stop-opacity:0.4"/>
		<stop  offset="0.1914" style="stop-color:#C9D1D0;stop-opacity:0.5148"/>
		<stop  offset="0.4081" style="stop-color:#BEC4C2;stop-opacity:0.6449"/>
		<stop  offset="0.6372" style="stop-color:#ACB0AC;stop-opacity:0.7823"/>
		<stop  offset="0.8734" style="stop-color:#92938C;stop-opacity:0.9241"/>
		<stop  offset="1" style="stop-color:#828178"/>
	</linearGradient>
	<circle class="st2" cx="665.5" cy="246.5" r="75.5"/>
	<linearGradient id="SVGID_3_" gradientUnits="userSpaceOnUse" x1="635.2559" y1="194.1157" x2="695.7441" y2="298.8843">
		<stop  offset="0" style="stop-color:#CDD5D5;stop-opacity:0.4"/>
		<stop  offset="0.1914" style="stop-color:#C9D1D0;stop-opacity:0.5148"/>
		<stop  offset="0.4081" style="stop-color:#BEC4C2;stop-opacity:0.6449"/>
		<stop  offset="0.6372" style="stop-color:#ACB0AC;stop-opacity:0.7823"/>
		<stop  offset="0.8734" style="stop-color:#92938C;stop-opacity:0.9241"/>
		<stop  offset="1" style="stop-color:#828178"/>
	</linearGradient>
	<circle class="st3" cx="665.5" cy="246.5" r="60.5"/>
	<linearGradient id="SVGID_4_" gradientUnits="userSpaceOnUse" x1="642.7545" y1="207.1035" x2="688.2455" y2="285.8965">
		<stop  offset="0" style="stop-color:#CDD5D5"/>
		<stop  offset="0.1914" style="stop-color:#C9D1D0"/>
		<stop  offset="0.4081" style="stop-color:#BEC4C2"/>
		<stop  offset="0.6372" style="stop-color:#ACB0AC"/>
		<stop  offset="0.8734" style="stop-color:#92938C"/>
		<stop  offset="1" style="stop-color:#828178"/>
	</linearGradient>
	<circle class="st4" cx="665.5" cy="246.5" r="45.5"/>
</g>
<g id="Layer_3">
	<g>
		<radialGradient id="SVGID_5_" cx="960" cy="540" r="352.5" gradientUnits="userSpaceOnUse">
			<stop  offset="0" style="stop-color:#00ADDC"/>
			<stop  offset="0.1884" style="stop-color:#00A8D8"/>
			<stop  offset="0.4018" style="stop-color:#009ACA"/>
			<stop  offset="0.6274" style="stop-color:#0084B3"/>
			<stop  offset="0.8599" style="stop-color:#006594"/>
			<stop  offset="1" style="stop-color:#004E7D"/>
		</radialGradient>
		<path class="st5" d="M960,892.5c-47.6,0-93.8-9.3-137.2-27.7c-42-17.8-79.7-43.2-112.1-75.6c-32.4-32.4-57.8-70.1-75.6-112.1
			c-18.4-43.4-27.7-89.6-27.7-137.2s9.3-93.8,27.7-137.2c17.8-42,43.2-79.7,75.6-112.1c32.4-32.4,70.1-57.8,112.1-75.6
			c43.4-18.4,89.6-27.7,137.2-27.7s93.8,9.3,137.2,27.7c42,17.8,79.7,43.2,112.1,75.6c32.4,32.4,57.8,70.1,75.6,112.1
			c18.4,43.4,27.7,89.6,27.7,137.2s-9.3,93.8-27.7,137.2c-17.8,42-43.2,79.7-75.6,112.1c-32.4,32.4-70.1,57.8-112.1,75.6
			C1053.8,883.2,1007.6,892.5,960,892.5z"/>
		<path class="st6" d="M1197.7,793.5c2.2,0,4.4,0.2,6.5,0.7c0.2-0.2,0.5-0.4,0.7-0.7H1197.7z M622,439.5c-0.2,0.5-0.3,1-0.5,1.5
			h32.2c0.2-0.5,0.3-1,0.5-1.5H622z M648.5,374.7c-0.5,1-1.1,2-1.6,3.1h35.2c0.6-1,1.2-2.1,1.8-3.1H648.5z M1284.8,402.8
			c-5.4-12.9-11.6-25.3-18.4-37.3c-15.5-27.2-34.6-52.3-57.1-74.7c-32.4-32.4-70.1-57.8-112.1-75.6c-5.5-2.3-11.1-4.5-16.7-6.6
			c-0.5,8.4-4.1,15.9-9.7,21.5c-2,2-4.4,3.8-6.9,5.3c-4.9,2.8-10.5,4.4-16.5,4.4h28.6c3,1.2,6.1,2.4,9.1,3.7
			c10.8,4.6,21.4,9.7,31.5,15.4c2,4.3,3.2,9,3.2,14c0,9.1-3.7,17.4-9.7,23.4s-14.3,9.7-23.4,9.7H963.5c-18.2,0-33.1-14.9-33.1-33.1
			c0-9.1,3.7-17.4,9.7-23.4c6-6,14.3-9.7,23.4-9.7h-91.7c-5.9,0-11.4-1.6-16.2-4.3c-9.5-5.4-16.1-15.3-16.8-26.7
			c-5.3,2-10.7,4.1-15.9,6.3c-42,17.8-79.7,43.2-112.1,75.6c-6.7,6.7-13.1,13.6-19.2,20.8h78.6c18.2,0,33.1,14.9,33.1,33.1
			c0,9.1-3.7,17.4-9.7,23.4c-2.7,2.7-5.9,5-9.5,6.6h-21.6c-5,0-9.7,1.1-13.9,3.1H747c0.2,0.1,0.5,0.2,0.7,0.4
			c-3.3,1.6-6.2,3.8-8.8,6.3c-6,6-9.7,14.3-9.7,23.4c0,13,7.6,24.3,18.5,29.7c-1.5,0.7-3.1,1.4-4.7,1.9h9.4c3.2,1,6.5,1.5,10,1.5
			h56.2c13.4,4.3,23.2,16.8,23.2,31.6c0,9.1-3.7,17.4-9.7,23.4c-6,6-14.3,9.7-23.4,9.7H609.8c-0.2,0-0.5,0-0.7,0
			c-1.1,11.3-1.6,22.8-1.6,34.3c0,25.9,2.8,51.3,8.2,76.1c1.3-0.2,2.7-0.3,4.1-0.3h48c-12.3-4.9-21-16.9-21-30.8
			c0-9.1,3.7-17.4,9.7-23.4c6-6,14.3-9.7,23.4-9.7h198.8c18.2,0,33.1,14.9,33.1,33.1c0,9.1-3.7,17.4-9.7,23.4
			c-6,6-14.3,9.7-23.4,9.7h-48c12.3,4.9,21,16.9,21,30.8c0,9.1-3.7,17.4-9.7,23.4c-6,6-14.3,9.7-23.4,9.7H637.3
			c17.6,40,42.3,76,73.4,107.1c31.3,31.3,67.5,56.1,107.8,73.7c1.3-2,2.8-3.8,4.4-5.4c6-6,14.3-9.7,23.4-9.7h123.3
			c10.2,0,19.4,4.7,25.5,12c4.8,5.7,7.7,13.1,7.7,21.1c0,3.2-0.5,6.2-1.3,9.2c33-3.8,65-12.3,95.7-25.3c4.6-1.9,9-3.9,13.5-6.1
			c-12.6-1.5-23-10.1-27.1-21.7c-1.2-3.4-1.9-7.1-1.9-10.9c0-9,3.7-17.2,9.6-23.1s14.1-9.6,23.1-9.6h-3.1c-2.8,0-5.5-0.4-8.1-1
			c5.8-1.5,10.9-4.5,15-8.6c5.9-5.9,9.6-14.1,9.6-23.1c0-15.2-10.5-28.1-24.7-31.7c2.6-0.7,5.3-1,8.1-1h-26.2
			c-18,0-32.7-14.7-32.7-32.7c0-9,3.7-17.2,9.6-23.1s14.1-9.6,23.1-9.6h186.5c6.3,0,12.1,1.8,17.1,4.9c6.2-15.9,11.2-32.2,14.9-48.8
			H1267c-3.9,0-7.7-0.7-11.2-2c4.5-1.7,8.6-4.3,12-7.6c5.9-5.9,9.6-14.1,9.6-23.1c0-14.1-9-26.2-21.6-30.8c3.5-1.3,7.3-2,11.2-2
			h45.2c0-0.3,0-0.5,0-0.8c0.1-4.1,0.2-8.2,0.2-12.3C1312.5,492.4,1303.2,446.2,1284.8,402.8z M1281.4,552.3h-215.5
			c-18,0-32.7-14.7-32.7-32.7c0-8.8,3.5-16.8,9.2-22.7c0.1-0.1,0.3-0.3,0.4-0.4c5.9-5.9,14.1-9.6,23.1-9.6h111.4
			c5.7-5.9,9.2-13.9,9.2-22.7c0-18-14.7-32.7-32.7-32.7h-2.7V431h-57.8c-18,0-32.7-14.7-32.7-32.7c0-9,3.7-17.2,9.6-23.1
			s14.1-9.6,23.1-9.6h137c10.1,15.6,18.8,32.1,26.1,49.3c16.8,39.6,25.2,81.7,25.2,125.2C1281.7,544.1,1281.6,548.2,1281.4,552.3z"
			/>
		<path class="st7" d="M1076.1,239.9h-28.6c6,0,11.6-1.6,16.5-4.4C1068,236.8,1072.1,238.3,1076.1,239.9z"/>
		<path class="st7" d="M1267,553.1c-3.9,0-7.7,0.7-11.2,2c12.6,4.6,21.6,16.7,21.6,30.8c0,9-3.7,17.2-9.6,23.1
			c-3.4,3.4-7.4,6-12,7.6c3.5,1.3,7.3,2,11.2,2h5c-3.8,14.9-8.6,29.6-14.5,43.9h-172.4c-9,0-17.2,3.7-23.1,9.6s-9.6,14.1-9.6,23.1
			c0,18,14.7,32.7,32.7,32.7h26.2c-2.8,0-5.5,0.4-8.1,1c14.1,3.6,24.7,16.5,24.7,31.7c0,9-3.7,17.2-9.6,23.1
			c-4.1,4.1-9.3,7.1-15,8.6c2.6,0.7,5.3,1,8.1,1h3.1c-9,0-17.2,3.7-23.1,9.6s-9.6,14.1-9.6,23.1c0,3.8,0.7,7.5,1.9,10.9
			c-28.4,11.8-58,19.4-88.5,22.7c-6.1-7.3-15.3-12-25.5-12H866.2c-10.6-3.2-21.1-7-31.4-11.4c-38.3-16.2-72.7-39.4-102.3-69
			c-25.1-25.1-45.7-53.8-61.2-85.3h147.3c9.1,0,17.4-3.7,23.4-9.7c6-6,9.7-14.3,9.7-23.4c0-14-8.7-26-21-30.8h48
			c9.1,0,17.4-3.7,23.4-9.7c6-6,9.7-14.3,9.7-23.4c0-18.2-14.9-33.1-33.1-33.1H679.9c-9.1,0-17.4,3.7-23.4,9.7
			c-6,6-9.7,14.3-9.7,23.4c0,14,8.7,26,21,30.8h-20.5c-6-24.7-9-50-9-75.9c0-11.5,0.6-23,1.8-34.3h168.5c9.1,0,17.4-3.7,23.4-9.7
			c6-6,9.7-14.3,9.7-23.4c0-14.8-9.8-27.3-23.2-31.6h-56.2c-3.5,0-6.8-0.5-10-1.5h-9.4c1.6-0.5,3.2-1.1,4.7-1.9
			c-10.9-5.4-18.5-16.7-18.5-29.7c0-9.1,3.7-17.4,9.7-23.4c2.5-2.5,5.5-4.7,8.8-6.3c-0.2-0.1-0.5-0.2-0.7-0.4h1.5
			c4.2-2,9-3.1,13.9-3.1H784c3.5-1.7,6.8-3.9,9.5-6.6c6-6,9.7-14.3,9.7-23.4c0-18.2-14.9-33.1-33.1-33.1h-36.5
			c29.3-29.1,63.4-52,101.3-68c6.8-2.9,13.8-5.5,20.8-7.9c4.8,2.7,10.3,4.3,16.2,4.3h91.7c-9.1,0-17.4,3.7-23.4,9.7
			c-6,6-9.7,14.3-9.7,23.4c0,18.2,14.9,33.1,33.1,33.1h123.3c9.1,0,17.4-3.7,23.4-9.7s9.7-14.3,9.7-23.4c0-5-1.1-9.8-3.2-14
			c25.8,14.4,49.5,32.4,70.7,53.6c16.2,16.2,30.6,33.9,42.8,52.9h-137c-9,0-17.2,3.7-23.1,9.6s-9.6,14.1-9.6,23.1
			c0,18,14.7,32.7,32.7,32.7h57.8v0.4h2.7c18,0,32.7,14.7,32.7,32.7c0,8.8-3.5,16.8-9.2,22.7h-111.4c-9,0-17.2,3.7-23.1,9.6
			c-0.1,0.1-0.3,0.3-0.4,0.4c-5.7,5.9-9.2,13.9-9.2,22.7c0,18,14.7,32.7,32.7,32.7h215.5c0,0.3,0,0.5,0,0.8H1267z"/>
		<path class="st8" d="M1312.3,553.1c-0.8,22.2-3.7,44.1-8.5,65.5H1272c5.4-21.3,8.5-43.2,9.4-65.5H1312.3z"/>
		<path class="st9" d="M1281.4,552.3c-0.9,22.3-4,44.2-9.4,65.5h-5c-3.9,0-7.7-0.7-11.2-2c4.5-1.7,8.6-4.3,12-7.6
			c5.9-5.9,9.6-14.1,9.6-23.1c0-14.1-9-26.2-21.6-30.8c3.5-1.3,7.3-2,11.2-2H1281.4z"/>
		<path class="st9" d="M1281.7,540c0,4.1-0.1,8.2-0.2,12.3h-215.5c-18,0-32.7-14.7-32.7-32.7c0-8.8,3.5-16.8,9.2-22.7
			c0.1-0.1,0.3-0.3,0.4-0.4c5.9-5.9,14.1-9.6,23.1-9.6h111.4c5.7-5.9,9.2-13.9,9.2-22.7c0-18-14.7-32.7-32.7-32.7h-2.7V431h-57.8
			c-18,0-32.7-14.7-32.7-32.7c0-9,3.7-17.2,9.6-23.1s14.1-9.6,23.1-9.6h137c10.1,15.6,18.8,32.1,26.1,49.3
			C1273.2,454.4,1281.7,496.5,1281.7,540z"/>
		<path class="st8" d="M1312.5,540c0,4.1-0.1,8.2-0.2,12.3h-30.8c0.2-4.1,0.2-8.2,0.2-12.3c0-43.5-8.5-85.6-25.2-125.2
			c-7.3-17.3-16-33.7-26.1-49.3h36.1c6.9,12,13,24.5,18.4,37.3C1303.2,446.2,1312.5,492.4,1312.5,540z"/>
		<path class="st8" d="M1288.8,667.4c-1.3,3.3-2.6,6.6-4,9.8c-7.5,17.7-16.4,34.7-26.6,50.8h-37.2c14.1-19.5,25.9-40.5,35.3-62.8
			c0.4-0.9,0.8-1.8,1.1-2.7h14.1C1277.9,662.5,1283.8,664.3,1288.8,667.4z"/>
		<path class="st9" d="M1257.6,662.5c-0.4,0.9-0.7,1.8-1.1,2.7c-9.4,22.3-21.3,43.3-35.3,62.8c-10.1,14-21.3,27.1-33.6,39.5
			c-9.3,9.3-19.1,18-29.4,26h-46.7c-2.8,0-5.5-0.4-8.1-1c5.8-1.5,10.9-4.5,15-8.6c5.9-5.9,9.6-14.1,9.6-23.1
			c0-15.2-10.5-28.1-24.7-31.7c2.6-0.7,5.3-1,8.1-1h-26.2c-18,0-32.7-14.7-32.7-32.7c0-9,3.7-17.2,9.6-23.1s14.1-9.6,23.1-9.6
			H1257.6z"/>
		<path class="st8" d="M1258.3,728c-13.9,22.1-30.3,42.5-49,61.3c-1.4,1.4-2.9,2.8-4.3,4.2h-46.8c10.2-8,20-16.7,29.4-26
			c12.3-12.3,23.6-25.5,33.6-39.5H1258.3z"/>
		<path class="st9" d="M1158.1,793.5c-22.3,17.5-46.7,31.8-72.9,42.9c-0.5,0.2-1.1,0.4-1.6,0.7c-1.2-3.4-1.9-7.1-1.9-10.9
			c0-9,3.7-17.2,9.6-23.1s14.1-9.6,23.1-9.6H1158.1z"/>
		<path class="st8" d="M1204.2,794.2c-27.7,26.6-59.1,48.3-93.6,64.6c0,0,0,0,0,0c-12.6-1.5-23-10.1-27.1-21.7
			c0.5-0.2,1.1-0.4,1.6-0.7c26.2-11.1,50.6-25.5,72.9-42.9h39.6C1199.9,793.5,1202.1,793.7,1204.2,794.2z"/>
		<path class="st8" d="M732,311.5c-0.3,0.3,0.1,3.7-0.2,4.1c-18.8,18.8-35.9,38.9-49.4,61.4H647c12-22.6,27.1-46,43.7-65.5H732z"/>
		<path class="st9" d="M841.7,472.6c0,9.1-3.7,17.4-9.7,23.4c-6,6-14.3,9.7-23.4,9.7H640.1c2.3-22.1,6.9-43.7,13.7-64.7
			c0.2-0.5,0.3-1,0.5-1.5c2.7-8.3,5.8-16.5,9.2-24.6c5.4-12.8,11.6-25.1,18.5-37c0.6-1,1.2-2.1,1.8-3.1c13.5-22.5,29-44.1,47.8-63
			c0.3-0.3,1.4,0.1,1.8-0.2h36.5c18.2,0,33.1,14.9,33.1,33.1c0,9.1-3.7,17.4-9.7,23.4c-2.7,2.7-5.9,5-9.5,6.6h-21.6
			c-5,0-9.7,1.1-13.9,3.1H747c0.2,0.1,0.5,0.2,0.7,0.4c-3.3,1.6-6.2,3.8-8.8,6.3c-6,6-9.7,14.3-9.7,23.4c0,13,7.6,24.3,18.5,29.7
			c-1.5,0.7-3.1,1.4-4.7,1.9h9.4c3.2,1,6.5,1.5,10,1.5h56.2C832,445.2,841.7,457.8,841.7,472.6z"/>
		<path class="st9" d="M784,374.7c-4.2,2-9,3.1-13.9,3.1h-21.6c4.2-2,9-3.1,13.9-3.1H784z"/>
		<path class="st8" d="M682.1,377c-6.9,11.9-13.1,25-18.5,37.8c-3.4,8.1-7.3,17.9-10,26.2h-32.3c3.7-12.4,8.8-26.2,13.9-38.2
			c3.6-8.5,7.5-17.6,11.7-25.8H682.1z"/>
		<path class="st8" d="M653.8,441c-6.8,21-11.4,42.6-13.7,64.7h-30.3c-0.2,0-0.5,0-0.7,0c2.1-22,6.3-43.6,12.4-64.7H653.8z"/>
		<path class="st9" d="M818.6,441h-56.2c-3.5,0-6.8-0.5-10-1.5h56.2C812.1,439.5,815.4,440,818.6,441z"/>
		<path class="st9" d="M671.3,682.2h-34c-0.7-1.6-1.4-3.3-2.1-5c-8.4-19.8-14.9-40.2-19.5-61c1.3-0.2,2.7-0.3,4.1-0.3h27.5
			c4.1,16.8,9.5,33.3,16.3,49.3C666,670.9,668.6,676.6,671.3,682.2z"/>
		<path class="st9" d="M911.8,585.1c0,9.1-3.7,17.4-9.7,23.4c-6,6-14.3,9.7-23.4,9.7h-48c12.3,4.9,21,16.9,21,30.8
			c0,9.1-3.7,17.4-9.7,23.4c-6,6-14.3,9.7-23.4,9.7H671.3c-2.8-5.6-5.3-11.2-7.8-17c-6.8-16-12.2-32.5-16.3-49.3h20.5
			c-12.3-4.9-21-16.9-21-30.8c0-9.1,3.7-17.4,9.7-23.4c6-6,14.3-9.7,23.4-9.7h198.8C896.9,551.9,911.8,566.9,911.8,585.1z"/>
		<path class="st9" d="M832.6,769.2h-39.5c-15.2,0-27.6-12.4-27.6-27.6v-11c0-15.2,12.4-27.6,27.6-27.6h39.5
			c15.2,0,27.6,12.4,27.6,27.6v11C860.2,756.8,847.8,769.2,832.6,769.2z"/>
		<path class="st10" d="M1119.9,273c0,9.1-3.7,17.4-9.7,23.4s-14.3,9.7-23.4,9.7H963.5c-18.2,0-33.1-14.9-33.1-33.1
			c0-9.1,3.7-17.4,9.7-23.4c6-6,14.3-9.7,23.4-9.7h-91.7c-5.9,0-11.4-1.6-16.2-4.3C889,224.1,924,218.3,960,218.3
			c35.8,0,70.6,5.8,103.9,17.1c-4.9,2.8-10.5,4.4-16.5,4.4h28.6c3,1.2,6.1,2.4,9.1,3.7c10.8,4.6,21.4,9.7,31.5,15.4
			C1118.7,263.2,1119.9,268,1119.9,273z"/>
		<path class="st11" d="M1080.5,208.6c-0.5,8.4-4.1,15.9-9.7,21.5c-2,2-4.4,3.8-6.9,5.3c-33.3-11.4-68.2-17.1-103.9-17.1
			c-36,0-71,5.8-104.4,17.3c-9.5-5.4-16.1-15.3-16.8-26.7c38.7-14.2,79.4-21.4,121.3-21.4C1001.6,187.5,1042,194.6,1080.5,208.6z"/>
		<path class="st11" d="M1116.7,259c-10.2-5.7-20.7-10.8-31.5-15.4c-3-1.3-6-2.5-9.1-3.7h10.6C1100,239.9,1111.4,247.7,1116.7,259z"
			/>
		<path class="st11" d="M1002.8,880.9c0,3.2-0.5,6.2-1.3,9.2c-13.7,1.6-27.5,2.4-41.5,2.4c-47.6,0-93.8-9.3-137.2-27.7
			c-1.4-0.6-2.8-1.2-4.3-1.8c1.3-2,2.8-3.8,4.4-5.4c6-6,14.3-9.7,23.4-9.7h19.8c30.2,9.2,61.6,13.9,93.8,13.9
			c11.8,0,23.5-0.6,35.1-1.9C999.9,865.5,1002.8,872.9,1002.8,880.9z"/>
		<path class="st10" d="M995.1,859.8c-11.6,1.3-23.3,1.9-35.1,1.9c-32.2,0-63.6-4.7-93.8-13.9h103.4
			C979.8,847.8,989,852.5,995.1,859.8z"/>
		<path class="st12" d="M960,819.3c-74.6,0-144.7-29.1-197.5-81.8c-52.8-52.8-81.8-122.9-81.8-197.5c0-74.6,29.1-144.7,81.8-197.5
			c52.8-52.8,122.9-81.8,197.5-81.8c74.6,0,144.7,29.1,197.5,81.8c52.8,52.8,81.8,122.9,81.8,197.5c0,74.6-29.1,144.7-81.8,197.5
			C1104.7,790.3,1034.6,819.3,960,819.3z"/>
	</g>
</g>
<g id="atmosphere_clouds">
	<linearGradient id="SVGID_6_" gradientUnits="userSpaceOnUse" x1="756.5545" y1="194.2246" x2="1191.1685" y2="946.998">
		<stop  offset="0" style="stop-color:#CDD5D5;stop-opacity:0.4"/>
		<stop  offset="0.1672" style="stop-color:#CBD0D2;stop-opacity:0.5003"/>
		<stop  offset="0.3567" style="stop-color:#C3C3CB;stop-opacity:0.614"/>
		<stop  offset="0.5569" style="stop-color:#B8ACC0;stop-opacity:0.7342"/>
		<stop  offset="0.7647" style="stop-color:#A78CAF;stop-opacity:0.8588"/>
		<stop  offset="0.9765" style="stop-color:#93649B;stop-opacity:0.9859"/>
		<stop  offset="1" style="stop-color:#905F98"/>
	</linearGradient>
	<path class="st13" d="M1438,529.4c0,20.6-7.6,39.3-19.8,52.9c-12.2,13.6-29,22-47.5,22h-173.5c18.2,13.4,30.3,36.4,30.3,62.5
		c0,20.6-7.6,39.3-19.8,52.9c-9.6,10.7-22,18.1-35.9,20.9h101.7c37,0,67.3,33.7,67.3,74.8c0,20.6-7.6,39.3-19.8,52.9
		c-12.2,13.6-29,22-47.5,22H910.2c-37,0-67.3-33.7-67.3-74.8c0-20.6,7.6-39.3,19.8-52.9c9.6-10.7,22-18.1,35.9-20.9h-290
		c-37,0-67.3-33.7-67.3-74.8c0-20.6,7.6-39.3,19.8-52.9c12.2-13.6,29-22,47.5-22h173.5c-18.2-13.4-30.3-36.4-30.3-62.5
		c0-20.6,7.6-39.3,19.8-52.9c9.6-10.7,22-18.1,35.9-20.9H579.3c-37,0-67.3-33.7-67.3-74.8c0-20.6,7.6-39.3,19.8-52.9
		c12.2-13.6,29-22,47.5-22h441.2c37,0,67.3,33.7,67.3,74.8c0,20.6-7.6,39.3-19.8,52.9c-9.6,10.7-22,18.1-35.9,20.9h338.5
		C1407.7,454.5,1438,488.2,1438,529.4z"/>
</g>
<g id="thermometer">
	<g>
		<path class="st14" d="M1284.2,697.1c0.3-2.6,0.4-5.3,0.4-8V394.7c0-20-8.2-38.2-21.3-51.3c-13.2-13.2-31.3-21.3-51.3-21.3
			c-40,0-72.7,32.7-72.7,72.7v294.5c0,2.7,0.1,5.4,0.4,8c-27.2,21.4-44.7,54.6-44.7,91.9c0,64.6,52.3,116.9,116.9,116.9
			s116.9-52.3,116.9-116.9C1328.8,751.8,1311.4,718.6,1284.2,697.1z M1212.2,887.4c-54.2,0-98.4-44.1-98.4-98.4
			c0-30.4,13.7-58.5,37.6-77.4l8.1-6.4l-1.2-10.3c-0.2-1.9-0.3-3.9-0.3-5.9V394.7c0-29.8,24.3-54.1,54.1-54.1
			c14.4,0,28,5.7,38.2,15.9c10.3,10.3,15.9,23.8,15.9,38.2v294.5c0,2-0.1,4-0.3,5.9l-1.2,10.3l8.1,6.4c23.9,18.8,37.6,47,37.6,77.4
			C1310.6,843.3,1266.5,887.4,1212.2,887.4z"/>
		<g>
			<path class="st15" d="M1261.5,726.3l-16.3-12.8l2.3-20.6c0.1-1.2,0.2-2.5,0.2-3.8V440.8h-71.1v248.4c0,1.3,0.1,2.6,0.2,3.8
				l2.3,20.6l-16.3,12.8c-19.4,15.3-30.5,38.1-30.5,62.8c0,44,35.8,79.8,79.8,79.8c44,0,79.8-35.8,79.8-79.8
				C1292,764.4,1280.9,741.6,1261.5,726.3z"/>
		</g>
	</g>
</g>
</svg>
