<?xml version="1.0" encoding="utf-8"?>
<!-- Generator: Adobe Illustrator 23.0.4, SVG Export Plug-In . SVG Version: 6.00 Build 0)  -->
<svg version="1.1" id="Layer_1" xmlns="http://www.w3.org/2000/svg" xmlns:xlink="http://www.w3.org/1999/xlink" x="0px" y="0px"
	 viewBox="0 0 1920 1080" style="enable-background:new 0 0 1920 1080;" xml:space="preserve">
<style type="text/css">
	.st0{fill:#F47A47;}
	.st1{fill:#007897;}
	.st2{fill:none;stroke:#FFFFFF;stroke-width:24;stroke-miterlimit:10;}
	.st3{fill:#B3B3B3;}
	.st4{fill:none;stroke:#000000;stroke-width:12;stroke-miterlimit:10;}
</style>
<g>
	<circle class="st0" cx="960" cy="540" r="527.6"/>
	<path class="st1" d="M1016.3,659c-18.6-18.6-21.2-46-5.9-61.3s42.8-12.7,61.3,5.9c18.6,18.6,13.9,78.8,13.9,78.8
		S1034.8,677.5,1016.3,659z"/>
	<path class="st1" d="M1030.9,715.7c-9.1,0.8-17-4.6-17.7-12.1c-0.7-7.5,6.2-14.3,15.3-15.1c9.1-0.8,33.8,4.9,33.8,4.9
		S1040,714.9,1030.9,715.7z"/>
	<path class="st2" d="M1375.7,477.4"/>
	<g>
		<path class="st3" d="M1366.8,298.9v9.5c0,4.8-3.9,8.8-8.8,8.8h-42.3v27h-37.2v-27H1234c-4.8,0-8.8-3.9-8.8-8.8v-9.5
			c0-4.8,3.9-8.8,8.8-8.8h124C1362.8,290.1,1366.8,294.1,1366.8,298.9z"/>
		<path class="st3" d="M1381,363.3v52.6c0,13.1-10.6,23.7-23.7,23.7h-161.6v56.9h9.5c4.8,0,8.8,3.9,8.8,8.8v25.5
			c0,4.8-3.9,8.8-8.8,8.8h-127.7c-4.8,0-8.8-3.9-8.8-8.8v-25.5c0-4.8,3.9-8.8,8.8-8.8h9.5v-79.3c0-38.3,29.2-69.8,66.5-73.5h207.9
			C1372.3,343.8,1381,352.5,1381,363.3z"/>
	</g>
	<path class="st3" d="M1457.3,438.6h-58c-4.8,0-8.8-3.9-8.8-8.8v-77.3c0-4.8,3.9-8.8,8.8-8.8h28.8
		C1441,374.5,1450.7,406.2,1457.3,438.6z"/>
	<path class="st1" d="M1462.5,609.8c-6.1,43.6-17.8,86-35,126.8c-25.6,60.4-62.1,114.7-108.8,161.3
		c-46.6,46.6-100.9,83.2-161.3,108.8c-62.5,26.5-129,39.9-197.5,39.9c-68.5,0-135-13.4-197.5-39.9
		c-60.4-25.6-114.7-62.1-161.3-108.8c-46.6-46.6-83.2-100.9-108.8-161.3c-3.8-9.1-7.4-18.2-10.7-27.4
		c171.2,91.7,299.9,96.8,390.1,81.1c126.3-22.1,184-86.3,365.5-138.6C1318.9,628.1,1395.2,615.8,1462.5,609.8z"/>
	<path class="st4" d="M962.8,1046.5c-68.5,0-135-13.4-197.5-39.9c-60.4-25.6-114.7-62.1-161.3-108.8
		c-46.6-46.6-83.2-100.9-108.8-161.3c-26.5-62.5-39.9-129-39.9-197.5s13.4-135,39.9-197.5c25.6-60.4,62.1-114.7,108.8-161.3
		c46.6-46.6,100.9-83.2,161.3-108.8c62.5-26.5,129-39.9,197.5-39.9s135,13.4,197.5,39.9c60.4,25.6,114.7,62.1,161.3,108.8
		c46.6,46.6,83.2,100.9,108.8,161.3c26.5,62.5,39.9,129,39.9,197.5s-13.4,135-39.9,197.5c-25.6,60.4-62.1,114.7-108.8,161.3
		c-46.6,46.6-100.9,83.2-161.3,108.8C1097.8,1033.1,1031.3,1046.5,962.8,1046.5z"/>
	<rect x="1112.5" y="539.3" class="st1" width="59.1" height="222.5"/>
</g>
</svg>
